<svg xmlns="http://www.w3.org/2000/svg" viewBox="0 0 400 200">
  <!-- Deep blue background -->
  <rect width="400" height="200" rx="0" fill="#1a237e"/>
  <!-- White board at top -->
  <rect x="30" y="20" width="340" height="70" rx="6" fill="#e8f5e9"/>
  <rect x="34" y="24" width="332" height="62" rx="4" fill="#ffffff"/>
  <!-- Handwritten-style text on board -->
  <text x="200" y="65" font-family="Arial, sans-serif" font-size="30" font-weight="bold"
        fill="#1a237e" text-anchor="middle" opacity="0.85">Αίθουσες 300</text>
  <!-- Eraser tray -->
  <rect x="30" y="88" width="340" height="8" rx="2" fill="#b0bec5"/>
  <rect x="50" y="89" width="30" height="5" rx="2" fill="#f5f5f5"/>
  <!-- Teacher silhouette at podium (front center) -->
  <rect x="178" y="108" width="44" height="8" rx="2" fill="#90a4ae"/>
  <circle cx="200" cy="102" r="10" fill="#e0e0e0"/>
  <path d="M182 130 Q182 115 200 115 Q218 115 218 130 Z" fill="#e0e0e0"/>
  <!-- Student 1 (left) -->
  <rect x="60" y="148" width="36" height="6" rx="2" fill="#5c6bc0"/>
  <circle cx="78" cy="140" r="8" fill="#9fa8da"/>
  <path d="M64 162 Q64 150 78 150 Q92 150 92 162 Z" fill="#9fa8da"/>
  <!-- Student 2 (center-left) -->
  <rect x="130" y="148" width="36" height="6" rx="2" fill="#5c6bc0"/>
  <circle cx="148" cy="140" r="8" fill="#9fa8da"/>
  <path d="M134 162 Q134 150 148 150 Q162 150 162 162 Z" fill="#9fa8da"/>
  <!-- Student 3 (center-right) -->
  <rect x="234" y="148" width="36" height="6" rx="2" fill="#5c6bc0"/>
  <circle cx="252" cy="140" r="8" fill="#9fa8da"/>
  <path d="M238 162 Q238 150 252 150 Q266 150 266 162 Z" fill="#9fa8da"/>
  <!-- Student 4 (right) -->
  <rect x="304" y="148" width="36" height="6" rx="2" fill="#5c6bc0"/>
  <circle cx="322" cy="140" r="8" fill="#9fa8da"/>
  <path d="M308 162 Q308 150 322 150 Q336 150 336 162 Z" fill="#9fa8da"/>
</svg>
